<?xml version="1.0" encoding="iso-8859-1"?>
<!-- Generator: Adobe Illustrator 18.0.0, SVG Export Plug-In . SVG Version: 6.00 Build 0)  -->
<!DOCTYPE svg PUBLIC "-//W3C//DTD SVG 1.1//EN" "http://www.w3.org/Graphics/SVG/1.1/DTD/svg11.dtd">
<svg version="1.1" id="Capa_1" xmlns="http://www.w3.org/2000/svg" xmlns:xlink="http://www.w3.org/1999/xlink" x="0px" y="0px"
	 viewBox="0 0 434.19 434.19" style="enable-background:new 0 0 434.19 434.19;" xml:space="preserve">
<g>
	<path d="M183.259,131.595c0-9.517-7.743-17.259-17.259-17.259c-9.517,0-17.26,7.742-17.26,17.259s7.743,17.26,17.26,17.26
		C175.517,148.855,183.259,141.112,183.259,131.595z M160.74,131.595c0-2.899,2.359-5.259,5.26-5.259c2.9,0,5.259,2.359,5.259,5.259
		c0,2.9-2.359,5.26-5.259,5.26C163.1,136.855,160.74,134.495,160.74,131.595z"/>
	<path d="M428.19,302.125H379l0.009-9.367c0.006-10.439-4.053-20.255-11.43-27.64c-7.378-7.386-17.19-11.453-27.63-11.453h-51.441
		c-7.808-7.706-16.815-13.96-26.808-18.609c-10.755-5.005-22.223-7.941-34.088-8.728l-36.22-2.38l1.204-37.467
		c20.346-9.899,34.403-30.78,34.403-54.886c0-33.636-27.364-61-61-61s-61,27.364-61,61c0,23.833,13.747,44.505,33.721,54.537
		l-1.049,22.715c-10.782-11.943-25.908-19.494-42.465-20.628c-7.009-0.474-13.865,0.208-20.488,1.985v-25.275h13.947
		c3.313,0,6-2.687,6-6v-16c0-3.313-2.687-6-6-6s-6,2.687-6,6v10H74.72V62.66c0-8.307-6.758-15.065-15.065-15.065
		S44.59,54.354,44.59,62.66v145.765c-9.68,10.517-15.514,24.036-16.486,38.354c-1.174,17.257,4.822,34.187,16.486,46.87v8.477H6
		c-3.313,0-6,2.687-6,6v17.47c0,3.313,2.687,6,6,6h38.59v49c0,3.313,2.686,6,6,6h18.13c3.314,0,6-2.687,6-6v-49h243.71v1.7
		c0,16.707,13.593,30.3,30.3,30.3c8.096,0,15.708-3.152,21.438-8.882c5.715-5.728,8.862-13.334,8.862-21.418v-1.7h8.23v49
		c0,3.313,2.687,6,6,6h18.13c3.313,0,6-2.687,6-6v-49h10.8c3.313,0,6-2.687,6-6v-17.47
		C434.19,304.812,431.503,302.125,428.19,302.125z M117,131.595c0-27.019,21.981-49,49-49s49,21.981,49,49s-21.981,49-49,49
		S117,158.614,117,131.595z M158.755,302.125H127.88c6.22-4.5,11.623-10.159,15.889-16.771
		C147.635,291.848,152.729,297.551,158.755,302.125z M94.39,200.192c18.259,1.251,34.368,12.144,42.365,28.535L135.7,251.58
		c-0.467,6.825,0.275,13.458,2.026,19.699c-8.548,19.858-28.497,32.087-50.251,30.61c-4.377-0.296-8.651-1.143-12.755-2.513V202.73
		C81.021,200.595,87.618,199.728,94.39,200.192z M40.076,247.592c0.421-6.197,1.969-12.209,4.514-17.764v42.402
		C41.1,264.6,39.494,256.148,40.076,247.592z M12,319.595v-5.47h32.59v5.47H12z M62.72,374.595h-6.13V62.66
		c0-1.69,1.375-3.065,3.065-3.065s3.065,1.375,3.065,3.065V374.595z M74.72,319.595v-5.47l243.71,0.026v5.443H74.72z
		 M367.03,333.295c0,4.884-1.903,9.48-5.352,12.938c-3.458,3.458-8.057,5.362-12.948,5.362c-10.091,0-18.3-8.209-18.3-18.3v-25.13
		c0-3.309-2.678-5.992-5.986-6H190.572c-25.441-1.886-44.669-24.36-42.897-49.823c0.003-0.047,0.006-0.094,0.008-0.141l2.844-61.6
		c4.943,1.297,10.127,1.994,15.472,1.994c4.979,0,9.815-0.613,14.45-1.744l-1.237,38.512c-0.104,3.233,2.375,5.968,5.604,6.18
		l42.007,2.761c10.377,0.687,20.409,3.255,29.815,7.632c9.426,4.387,17.849,10.405,25.034,17.887
		c1.131,1.178,2.694,1.844,4.328,1.844h53.95c7.231,0,14.029,2.817,19.14,7.935c5.111,5.116,7.924,11.918,7.92,19.148
		L367.03,333.295z M405.39,374.595h-6.13v-43h6.13V374.595z M422.19,319.595h-43.16v-5.47h43.16V319.595z"/>
</g>
<g>
</g>
<g>
</g>
<g>
</g>
<g>
</g>
<g>
</g>
<g>
</g>
<g>
</g>
<g>
</g>
<g>
</g>
<g>
</g>
<g>
</g>
<g>
</g>
<g>
</g>
<g>
</g>
<g>
</g>
</svg>
